solid front_platform
  facet normal 0 0 -1
    outer loop
      vertex -0.35 -0.80 -0.25
      vertex 0.35 0.80 -0.25
      vertex 0.35 -0.80 -0.25
    endloop
  endfacet
  facet normal 0 0 -1
    outer loop
      vertex -0.35 -0.80 -0.25
      vertex -0.35 0.80 -0.25
      vertex 0.35 0.80 -0.25
    endloop
  endfacet
  facet normal 0 0 1
    outer loop
      vertex -0.35 -0.80 0.25
      vertex 0.35 -0.80 0.25
      vertex 0.35 0.80 0.25
    endloop
  endfacet
  facet normal 0 0 1
    outer loop
      vertex -0.35 -0.80 0.25
      vertex 0.35 0.80 0.25
      vertex -0.35 0.80 0.25
    endloop
  endfacet
  facet normal -1 0 0
    outer loop
      vertex -0.35 -0.80 -0.25
      vertex -0.35 -0.80 0.25
      vertex -0.35 0.80 0.25
    endloop
  endfacet
  facet normal -1 0 0
    outer loop
      vertex -0.35 -0.80 -0.25
      vertex -0.35 0.80 0.25
      vertex -0.35 0.80 -0.25
    endloop
  endfacet
  facet normal 1 0 0
    outer loop
      vertex 0.35 -0.80 -0.25
      vertex 0.35 0.80 0.25
      vertex 0.35 -0.80 0.25
    endloop
  endfacet
  facet normal 1 0 0
    outer loop
      vertex 0.35 -0.80 -0.25
      vertex 0.35 0.80 -0.25
      vertex 0.35 0.80 0.25
    endloop
  endfacet
  facet normal 0 -1 0
    outer loop
      vertex -0.35 -0.80 -0.25
      vertex 0.35 -0.80 0.25
      vertex -0.35 -0.80 0.25
    endloop
  endfacet
  facet normal 0 -1 0
    outer loop
      vertex -0.35 -0.80 -0.25
      vertex 0.35 -0.80 -0.25
      vertex 0.35 -0.80 0.25
    endloop
  endfacet
  facet normal 0 1 0
    outer loop
      vertex -0.35 0.80 -0.25
      vertex -0.35 0.80 0.25
      vertex 0.35 0.80 0.25
    endloop
  endfacet
  facet normal 0 1 0
    outer loop
      vertex -0.35 0.80 -0.25
      vertex 0.35 0.80 0.25
      vertex 0.35 0.80 -0.25
    endloop
  endfacet
endsolid front_platform
